<svg width="326" height="47" viewBox="0 0 326 47" fill="none" xmlns="http://www.w3.org/2000/svg">
<path d="M33.1172 3.25H13.3613V6.87305H21.4277V31.5166H25.085V6.87305H33.1172V3.25ZM26.623 0.173828C28.9245 0.173828 31.0094 0.515625 32.8779 1.19922C34.7464 1.88281 36.3301 2.81706 37.6289 4.00195C38.9505 5.18685 39.9645 6.57682 40.6709 8.17188C41.3773 9.74414 41.7305 11.4189 41.7305 13.1963V33.9775C41.7305 35.7549 41.3773 37.4411 40.6709 39.0361C39.9645 40.6084 38.9505 41.987 37.6289 43.1719C36.3301 44.3568 34.7464 45.291 32.8779 45.9746C31.0094 46.6582 28.9245 47 26.623 47H16.0957C13.7943 47 11.7093 46.6582 9.84082 45.9746C7.97233 45.291 6.37728 44.3568 5.05566 43.1719C3.75684 41.987 2.75423 40.6084 2.04785 39.0361C1.34147 37.4411 0.988281 35.7549 0.988281 33.9775V13.1963C0.988281 11.4189 1.34147 9.74414 2.04785 8.17188C2.75423 6.57682 3.75684 5.18685 5.05566 4.00195C6.37728 2.81706 7.97233 1.88281 9.84082 1.19922C11.7093 0.515625 13.7943 0.173828 16.0957 0.173828H26.623ZM67.0918 0.173828C69.3932 0.173828 71.4782 0.515625 73.3467 1.19922C75.2152 1.88281 76.7988 2.81706 78.0977 4.00195C79.4193 5.18685 80.4333 6.57682 81.1396 8.17188C81.846 9.74414 82.1992 11.4189 82.1992 13.1963V33.9775C82.1992 35.7549 81.846 37.4411 81.1396 39.0361C80.4333 40.6084 79.4193 41.987 78.0977 43.1719C76.7988 44.3568 75.2152 45.291 73.3467 45.9746C71.4782 46.6582 69.3932 47 67.0918 47H56.5645C54.263 47 52.1781 46.6582 50.3096 45.9746C48.4411 45.291 46.846 44.3568 45.5244 43.1719C44.2256 41.987 43.223 40.6084 42.5166 39.0361C41.8102 37.4411 41.457 35.7549 41.457 33.9775V13.1963C41.457 11.4189 41.8102 9.74414 42.5166 8.17188C43.223 6.57682 44.2256 5.18685 45.5244 4.00195C46.846 2.81706 48.4411 1.88281 50.3096 1.19922C52.1781 0.515625 54.263 0.173828 56.5645 0.173828H67.0918ZM73.9277 3.25H70.3047V25.6377C70.2591 25.9339 70.1794 26.2529 70.0654 26.5947C69.9743 26.9365 69.8831 27.2555 69.792 27.5518L67.5703 27.8936H58.8203L56.5645 27.5518L56.0859 25.501V3.25H52.5312V26.0137L52.9414 28.9531L55.1631 31.1064L58.6152 31.5166H67.7754L71.2617 31.1064L73.4492 28.9531L73.9277 26.0137V3.25ZM113.918 8.71875L113.439 5.84766L111.252 3.66016L107.766 3.25H99.2207L93.0684 4.10449V31.5166H96.6914V7.24902L99.3574 6.80469H107.561L109.919 7.18066L110.261 9.19727V31.5166H113.918V8.71875ZM107.561 0.173828C109.862 0.173828 111.947 0.515625 113.815 1.19922C115.684 1.88281 117.268 2.81706 118.566 4.00195C119.888 5.18685 120.902 6.57682 121.608 8.17188C122.315 9.74414 122.668 11.4189 122.668 13.1963V33.9775C122.668 35.7549 122.315 37.4411 121.608 39.0361C120.902 40.6084 119.888 41.987 118.566 43.1719C117.268 44.3568 115.684 45.291 113.815 45.9746C111.947 46.6582 109.862 47 107.561 47H97.0332C94.7318 47 92.6468 46.6582 90.7783 45.9746C88.9098 45.291 87.3148 44.3568 85.9932 43.1719C84.6943 41.987 83.6917 40.6084 82.9854 39.0361C82.279 37.4411 81.9258 35.7549 81.9258 33.9775V13.1963C81.9258 11.4189 82.279 9.74414 82.9854 8.17188C83.6917 6.57682 84.6943 5.18685 85.9932 4.00195C87.3148 2.81706 88.9098 1.88281 90.7783 1.19922C92.6468 0.515625 94.7318 0.173828 97.0332 0.173828H107.561ZM148.029 0.173828C150.331 0.173828 152.416 0.515625 154.284 1.19922C156.153 1.88281 157.736 2.81706 159.035 4.00195C160.357 5.18685 161.371 6.57682 162.077 8.17188C162.784 9.74414 163.137 11.4189 163.137 13.1963V33.9775C163.137 35.7549 162.784 37.4411 162.077 39.0361C161.371 40.6084 160.357 41.987 159.035 43.1719C157.736 44.3568 156.153 45.291 154.284 45.9746C152.416 46.6582 150.331 47 148.029 47H137.502C135.201 47 133.116 46.6582 131.247 45.9746C129.379 45.291 127.784 44.3568 126.462 43.1719C125.163 41.987 124.16 40.6084 123.454 39.0361C122.748 37.4411 122.395 35.7549 122.395 33.9775V13.1963C122.395 11.4189 122.748 9.74414 123.454 8.17188C124.16 6.57682 125.163 5.18685 126.462 4.00195C127.784 2.81706 129.379 1.88281 131.247 1.19922C133.116 0.515625 135.201 0.173828 137.502 0.173828H148.029ZM152.507 8.71875L151.994 5.84766L149.841 3.66016L146.389 3.25H138.972L135.554 3.66016L133.4 5.84766L132.888 8.71875V24.9541L133.4 27.8252L135.554 29.9785L138.972 30.4229H147.585L151.584 29.9102L150.729 26.2188L147.517 26.7656H139.211L137.023 26.4238L136.545 24.373V17.332H152.507V8.71875ZM136.545 13.7432V9.12891L136.818 7.18066L139.211 6.80469H146.184L148.508 7.18066L148.85 9.19727V13.7432H136.545Z" fill="white"/>
<path d="M188.498 0.173828C190.799 0.173828 192.884 0.515625 194.753 1.19922C196.621 1.88281 198.205 2.81706 199.504 4.00195C200.826 5.18685 201.84 6.57682 202.546 8.17188C203.252 9.74414 203.605 11.4189 203.605 13.1963V33.9775C203.605 35.7549 203.252 37.4411 202.546 39.0361C201.84 40.6084 200.826 41.987 199.504 43.1719C198.205 44.3568 196.621 45.291 194.753 45.9746C192.884 46.6582 190.799 47 188.498 47H177.971C175.669 47 173.584 46.6582 171.716 45.9746C169.847 45.291 168.252 44.3568 166.931 43.1719C165.632 41.987 164.629 40.6084 163.923 39.0361C163.216 37.4411 162.863 35.7549 162.863 33.9775V13.1963C162.863 11.4189 163.216 9.74414 163.923 8.17188C164.629 6.57682 165.632 5.18685 166.931 4.00195C168.252 2.81706 169.847 1.88281 171.716 1.19922C173.584 0.515625 175.669 0.173828 177.971 0.173828H188.498ZM194.924 20.8184L194.445 17.8789L192.258 15.7256L188.703 15.3496H181.047L178.962 14.9395C178.848 14.5521 178.768 14.2103 178.723 13.9141C178.677 13.5951 178.597 13.2646 178.483 12.9229V9.33398L178.962 7.31738L181.218 6.87305H189.899L193.112 7.52246L193.933 3.79688L189.968 3.25H180.979L177.561 3.72852L175.339 5.91602L174.895 8.78711V13.4697L175.339 16.3408L177.561 18.4941L180.979 18.9385H188.703L190.788 19.2803C190.856 19.6221 190.936 19.9411 191.027 20.2373C191.118 20.5335 191.198 20.8411 191.267 21.1602V25.6377C191.221 25.9339 191.141 26.2529 191.027 26.5947C190.936 26.9365 190.856 27.2555 190.788 27.5518L188.566 27.8936H180.09L176.74 27.3467L175.886 31.0381L179.885 31.5166H188.771L192.258 31.1064L194.445 28.9531L194.924 26.0137V20.8184ZM235.461 3.25H215.705V6.87305H223.771V31.5166H227.429V6.87305H235.461V3.25ZM228.967 0.173828C231.268 0.173828 233.353 0.515625 235.222 1.19922C237.09 1.88281 238.674 2.81706 239.973 4.00195C241.294 5.18685 242.308 6.57682 243.015 8.17188C243.721 9.74414 244.074 11.4189 244.074 13.1963V33.9775C244.074 35.7549 243.721 37.4411 243.015 39.0361C242.308 40.6084 241.294 41.987 239.973 43.1719C238.674 44.3568 237.09 45.291 235.222 45.9746C233.353 46.6582 231.268 47 228.967 47H218.439C216.138 47 214.053 46.6582 212.185 45.9746C210.316 45.291 208.721 44.3568 207.399 43.1719C206.101 41.987 205.098 40.6084 204.392 39.0361C203.685 37.4411 203.332 35.7549 203.332 33.9775V13.1963C203.332 11.4189 203.685 9.74414 204.392 8.17188C205.098 6.57682 206.101 5.18685 207.399 4.00195C208.721 2.81706 210.316 1.88281 212.185 1.19922C214.053 0.515625 216.138 0.173828 218.439 0.173828H228.967ZM269.436 0.173828C271.737 0.173828 273.822 0.515625 275.69 1.19922C277.559 1.88281 279.143 2.81706 280.441 4.00195C281.763 5.18685 282.777 6.57682 283.483 8.17188C284.19 9.74414 284.543 11.4189 284.543 13.1963V33.9775C284.543 35.7549 284.19 37.4411 283.483 39.0361C282.777 40.6084 281.763 41.987 280.441 43.1719C279.143 44.3568 277.559 45.291 275.69 45.9746C273.822 46.6582 271.737 47 269.436 47H258.908C256.607 47 254.522 46.6582 252.653 45.9746C250.785 45.291 249.19 44.3568 247.868 43.1719C246.569 41.987 245.567 40.6084 244.86 39.0361C244.154 37.4411 243.801 35.7549 243.801 33.9775V13.1963C243.801 11.4189 244.154 9.74414 244.86 8.17188C245.567 6.57682 246.569 5.18685 247.868 4.00195C249.19 2.81706 250.785 1.88281 252.653 1.19922C254.522 0.515625 256.607 0.173828 258.908 0.173828H269.436ZM273.913 8.71875L273.4 5.84766L271.247 3.66016L267.795 3.25H260.378L256.96 3.66016L254.807 5.84766L254.294 8.71875V24.9541L254.807 27.8252L256.96 29.9785L260.378 30.4229H268.991L272.99 29.9102L272.136 26.2188L268.923 26.7656H260.617L258.43 26.4238L257.951 24.373V17.332H273.913V8.71875ZM257.951 13.7432V9.12891L258.225 7.18066L260.617 6.80469H267.59L269.914 7.18066L270.256 9.19727V13.7432H257.951ZM309.904 0.173828C312.206 0.173828 314.291 0.515625 316.159 1.19922C318.028 1.88281 319.611 2.81706 320.91 4.00195C322.232 5.18685 323.246 6.57682 323.952 8.17188C324.659 9.74414 325.012 11.4189 325.012 13.1963V33.9775C325.012 35.7549 324.659 37.4411 323.952 39.0361C323.246 40.6084 322.232 41.987 320.91 43.1719C319.611 44.3568 318.028 45.291 316.159 45.9746C314.291 46.6582 312.206 47 309.904 47H299.377C297.076 47 294.991 46.6582 293.122 45.9746C291.254 45.291 289.659 44.3568 288.337 43.1719C287.038 41.987 286.035 40.6084 285.329 39.0361C284.623 37.4411 284.27 35.7549 284.27 33.9775V13.1963C284.27 11.4189 284.623 9.74414 285.329 8.17188C286.035 6.57682 287.038 5.18685 288.337 4.00195C289.659 2.81706 291.254 1.88281 293.122 1.19922C294.991 0.515625 297.076 0.173828 299.377 0.173828H309.904ZM311.647 23.0742V31.5166H315.271V22.6982L314.074 19.5537L310.178 18.1523L313.938 16.3408L314.997 13.2646V9.4707L314.587 6.59961L312.331 3.72852L308.913 3.25H296.164V31.5166H299.821V20.1348H308.708L311.135 21.2285L311.647 23.0742ZM308.708 6.87305L311.135 7.93262L311.374 9.91504V13.5381L310.861 15.418L308.708 16.4775H299.821V6.87305H308.708Z" fill="#B2DF8A"/>
</svg>
