<svg width="250" height="54" viewBox="0 0 250 54" fill="none" xmlns="http://www.w3.org/2000/svg">
<g filter="url(#filter0_d_48_1356)">
<path d="M4.82812 1.22656C7.44531 1.53906 9.71094 1.77344 11.625 1.92969C13.5391 2.04688 15.1211 2.14453 16.3711 2.22266C17.8164 2.30078 19.0273 2.32031 20.0039 2.28125C21.0195 2.24219 22.4062 2.14453 24.1641 1.98828C25.6484 1.87109 27.6016 1.71484 30.0234 1.51953C32.4453 1.28516 35.4727 0.972656 39.1055 0.582031C39.1445 1.48047 39.1641 2.35938 39.1641 3.21875C39.2031 4.03906 39.2422 4.76172 39.2812 5.38672C39.3203 6.12891 39.3398 6.8125 39.3398 7.4375C39.3398 8.10156 39.3008 8.94141 39.2227 9.95703C39.1445 10.8164 39.0078 11.9102 38.8125 13.2383C38.6562 14.5273 38.4023 16.0703 38.0508 17.8672C37.5039 15.7578 36.9766 14.0586 36.4688 12.7695C35.9609 11.4414 35.4922 10.3867 35.0625 9.60547C34.5938 8.70703 34.125 8.02344 33.6562 7.55469C33.1484 7.20312 32.543 6.91016 31.8398 6.67578C31.2148 6.48047 30.4141 6.32422 29.4375 6.20703C28.5 6.08984 27.3867 6.10938 26.0977 6.26562C25.9023 11.4219 25.7656 15.6016 25.6875 18.8047C25.6094 22.0078 25.5508 24.5078 25.5117 26.3047C25.4727 28.4531 25.4531 29.9961 25.4531 30.9336C25.4922 32.2617 25.707 33.5703 26.0977 34.8594C26.4102 35.9531 26.918 37.0859 27.6211 38.2578C28.3242 39.4297 29.3398 40.4648 30.668 41.3633H23.5195C22.8555 41.3633 22.0352 41.4023 21.0586 41.4805C20.2383 41.5586 19.1836 41.6367 17.8945 41.7148C16.6445 41.793 15.1797 41.9297 13.5 42.125C14.0859 41.1094 14.5547 40.1914 14.9062 39.3711C15.2578 38.5508 15.5312 37.8477 15.7266 37.2617C15.9609 36.5586 16.1367 35.9336 16.2539 35.3867C16.293 34.6055 16.3906 33.0234 16.5469 30.6406C16.5859 29.6641 16.625 28.4531 16.6641 27.0078C16.7422 25.5625 16.8203 23.8438 16.8984 21.8516C17.0156 19.8594 17.1133 17.5742 17.1914 14.9961C17.3086 12.3789 17.4258 9.42969 17.543 6.14844C16.8398 5.95312 16.1758 5.97266 15.5508 6.20703C14.9258 6.40234 14.3789 6.65625 13.9102 6.96875C13.3633 7.35937 12.8359 7.82812 12.3281 8.375C11.8203 9.03906 11.2539 9.89844 10.6289 10.9531C10.082 11.8516 9.45703 13.043 8.75391 14.5273C8.05078 15.9727 7.25 17.7695 6.35156 19.918C6.15625 17.6523 6.01953 15.7969 5.94141 14.3516C5.86328 12.8672 5.80469 11.7148 5.76562 10.8945C5.72656 9.91797 5.70703 9.19531 5.70703 8.72656C5.70703 8.29687 5.66797 7.73047 5.58984 7.02734C5.51172 6.44141 5.41406 5.67969 5.29688 4.74219C5.17969 3.76563 5.02344 2.59375 4.82812 1.22656ZM37.582 17.0469C38.5977 17.2422 39.4766 17.3984 40.2188 17.5156C41 17.5938 41.6641 17.6719 42.2109 17.75C42.8359 17.8281 43.3828 17.8867 43.8516 17.9258C44.3203 17.9648 44.8672 18.0039 45.4922 18.043C46.5469 18.082 48.0312 18.082 49.9453 18.043C48.8125 17.9648 47.9141 18.2578 47.25 18.9219C46.625 19.5469 46.1562 20.2695 45.8438 21.0898C45.4531 22.0664 45.2383 23.1992 45.1992 24.4883C45.1211 26.207 45.1602 27.7695 45.3164 29.1758C45.5117 30.543 45.8438 31.7148 46.3125 32.6914C46.8203 33.6289 47.4844 34.332 48.3047 34.8008C49.125 35.2305 50.1797 35.3477 51.4688 35.1523C52.7578 34.957 53.7344 34.5078 54.3984 33.8047C55.1016 33.0625 55.6094 32.1641 55.9219 31.1094C56.2344 30.0156 56.4102 28.7852 56.4492 27.418C56.5273 26.0508 56.5859 24.625 56.625 23.1406C56.625 21.6562 56.6055 20.6016 56.5664 19.9766C56.5664 19.3125 56.5469 18.8828 56.5078 18.6875C56.4688 18.4922 56.4102 18.4141 56.332 18.4531C56.2539 18.4531 56.1562 18.3555 56.0391 18.1602C55.9609 18.0039 55.8438 17.8477 55.6875 17.6914C55.5703 17.5352 55.4141 17.3594 55.2188 17.1641C55.0234 16.9297 54.8086 16.6953 54.5742 16.4609C55.5898 16.5 56.4883 16.5391 57.2695 16.5781C58.0898 16.5781 58.7734 16.5977 59.3203 16.6367C59.9453 16.6758 60.4922 16.7148 60.9609 16.7539C61.3906 16.793 61.957 16.8516 62.6602 16.9297C63.2461 17.0078 64.0078 17.0859 64.9453 17.1641C65.8828 17.2422 66.9961 17.3594 68.2852 17.5156C67.3867 17.7109 66.6641 18.0039 66.1172 18.3945C65.5703 18.7852 65.1406 19.1758 64.8281 19.5664C64.4766 19.9961 64.2227 20.4648 64.0664 20.9727C63.9492 21.6367 63.9492 22.6523 64.0664 24.0195C64.1445 25.2305 64.3398 26.8906 64.6523 29C64.9648 31.1094 65.4531 33.8828 66.1172 37.3203L61.4883 40.0742L60.5508 32.2812C59.418 34.1953 58.207 35.6797 56.918 36.7344C55.668 37.75 54.4961 38.4922 53.4023 38.9609C52.1133 39.5078 50.8633 39.8203 49.6523 39.8984C48.0508 39.8984 46.6641 39.8008 45.4922 39.6055C44.3594 39.3711 43.3828 39.0781 42.5625 38.7266C41.7422 38.375 41.0781 37.9844 40.5703 37.5547C40.1016 37.0859 39.75 36.6172 39.5156 36.1484C38.9688 35.1719 38.6758 33.9219 38.6367 32.3984C38.5977 30.8359 38.6562 29.293 38.8125 27.7695C38.9688 26.207 39.1445 24.7812 39.3398 23.4922C39.5352 22.2031 39.5938 21.3242 39.5156 20.8555C39.4375 20.5039 39.3203 20.1133 39.1641 19.6836C39.0078 19.332 38.8125 18.9414 38.5781 18.5117C38.3438 18.043 38.0117 17.5547 37.582 17.0469ZM70.9805 37.5547C71.2539 36.2656 71.4492 35.1328 71.5664 34.1562C71.7227 33.1406 71.8398 32.3008 71.918 31.6367C71.9961 30.8555 72.0352 30.1914 72.0352 29.6445C71.9961 28.9805 71.957 28.1992 71.918 27.3008C71.918 26.3633 71.8789 25.4453 71.8008 24.5469C71.7617 23.6094 71.7031 22.7891 71.625 22.0859C71.5469 21.3438 71.4492 20.8164 71.332 20.5039C71.1758 20.1914 70.9609 19.8594 70.6875 19.5078C70.1406 18.8438 69.3398 18.1992 68.2852 17.5742C69.1836 17.3789 69.9453 17.2227 70.5703 17.1055C71.2344 16.9492 71.7812 16.8125 72.2109 16.6953C72.6797 16.5391 73.0898 16.4023 73.4414 16.2852C73.7539 16.168 74.125 16.0508 74.5547 15.9336C74.9062 15.8555 75.3359 15.7578 75.8438 15.6406C76.3516 15.5234 76.9375 15.3867 77.6016 15.2305L77.4258 20.5625C78.6758 19.0781 79.9453 17.9648 81.2344 17.2227C82.5234 16.4805 83.7344 15.9531 84.8672 15.6406C86.1562 15.25 87.4258 15.0547 88.6758 15.0547C90.2383 15.1328 91.6836 15.3867 93.0117 15.8164C94.3789 16.2461 95.5508 16.7539 96.5273 17.3398C97.543 17.8867 98.3633 18.4727 98.9883 19.0977C99.6133 19.7227 99.9844 20.2695 100.102 20.7383C100.57 22.2617 100.688 23.668 100.453 24.957C100.219 26.207 99.9062 27.4375 99.5156 28.6484C99.1641 29.8203 98.8516 30.9922 98.5781 32.1641C98.3438 33.3359 98.4414 34.6055 98.8711 35.9727C99.0273 36.3242 99.1836 36.6758 99.3398 37.0273C99.4961 37.3398 99.6914 37.6523 99.9258 37.9648C100.16 38.2773 100.434 38.5312 100.746 38.7266C100.316 38.6875 99.8867 38.668 99.457 38.668C99.0273 38.6289 98.6367 38.5898 98.2852 38.5508C97.8555 38.5117 97.4648 38.4727 97.1133 38.4336C96.7227 38.3945 96.1953 38.375 95.5312 38.375C94.3984 38.375 92.6406 38.4336 90.2578 38.5508C90.6094 37.7305 90.8828 37.0469 91.0781 36.5C91.3125 35.9141 91.5078 35.4453 91.6641 35.0938C91.8203 34.6641 91.9375 34.332 92.0156 34.0977C92.4844 32.9648 92.7578 31.6758 92.8359 30.2305C92.9531 28.7852 92.8555 27.3203 92.543 25.8359C92.4258 25.3281 92.2305 24.7227 91.957 24.0195C91.6836 23.3164 91.3125 22.6328 90.8438 21.9688C90.4141 21.3047 89.8867 20.7383 89.2617 20.2695C88.6758 19.8008 87.9922 19.5273 87.2109 19.4492C86.4297 19.3711 85.5508 19.5664 84.5742 20.0352C83.6367 20.5039 82.6211 21.3633 81.5273 22.6133C80.707 23.668 80.0625 24.957 79.5938 26.4805C79.1641 27.7695 78.8711 29.3906 78.7148 31.3438C78.5586 33.2578 78.793 35.5039 79.418 38.082C78.8711 38.0039 78.3633 37.9648 77.8945 37.9648C77.4258 37.9258 77.0352 37.8867 76.7227 37.8477C76.332 37.8086 75.9805 37.7695 75.668 37.7305C75.3164 37.7305 74.9258 37.7109 74.4961 37.6719C74.1055 37.6719 73.6172 37.6719 73.0312 37.6719C72.4453 37.6328 71.7617 37.5938 70.9805 37.5547ZM119.555 34.5664C120.648 34.5664 121.664 34.4492 122.602 34.2148C123.383 34.0195 124.125 33.707 124.828 33.2773C125.57 32.8086 126.059 32.125 126.293 31.2266C127.074 31.3828 127.738 31.5195 128.285 31.6367C128.832 31.7148 129.301 31.793 129.691 31.8711C130.121 31.9883 130.492 32.0664 130.805 32.1055C131.117 32.1836 131.488 32.2617 131.918 32.3398C132.309 32.418 132.777 32.5156 133.324 32.6328C133.91 32.7109 134.594 32.8281 135.375 32.9844C134.789 32.9062 134.184 32.9648 133.559 33.1602C132.973 33.3555 132.406 33.5703 131.859 33.8047C131.234 34.0781 130.648 34.4102 130.102 34.8008C129.75 35.0352 129.34 35.3867 128.871 35.8555C128.441 36.3242 127.816 36.7734 126.996 37.2031C126.176 37.6328 125.082 38.0039 123.715 38.3164C122.387 38.5898 120.668 38.6875 118.559 38.6094C116.02 38.5312 113.891 38.082 112.172 37.2617C110.453 36.4023 109.066 35.3672 108.012 34.1562C106.957 32.9062 106.195 31.5586 105.727 30.1133C105.258 28.668 105.004 27.3203 104.965 26.0703C104.926 24.8203 105.297 23.5117 106.078 22.1445C106.859 20.7773 107.953 19.5273 109.359 18.3945C110.805 17.2617 112.543 16.3438 114.574 15.6406C116.605 14.8984 118.832 14.5273 121.254 14.5273C122.66 14.5273 123.949 14.7031 125.121 15.0547C126.332 15.3672 127.426 15.7969 128.402 16.3438C129.418 16.8906 130.297 17.5156 131.039 18.2188C131.781 18.8828 132.406 19.5664 132.914 20.2695C133.422 21.0117 133.852 21.793 134.203 22.6133C134.516 23.3164 134.77 24.1172 134.965 25.0156C135.16 25.9141 135.219 26.832 135.141 27.7695C132.172 27.8477 129.77 27.9062 127.934 27.9453C126.137 27.9844 124.73 28.0039 123.715 28.0039H121.078H119.086C118.383 28.0039 117.465 28.0234 116.332 28.0625C115.199 28.1016 113.812 28.1602 112.172 28.2383C112.367 29.8008 112.855 31.0117 113.637 31.8711C114.457 32.6914 115.316 33.3164 116.215 33.7461C117.23 34.2148 118.344 34.4883 119.555 34.5664ZM114.281 24.0195C115.531 24.0977 116.566 24.1562 117.387 24.1953C118.246 24.2344 118.949 24.2734 119.496 24.3125C120.082 24.3516 120.551 24.3711 120.902 24.3711H122.367C123.344 24.3711 125.16 24.3125 127.816 24.1953C127.699 22.4766 127.328 21.168 126.703 20.2695C126.117 19.3711 125.492 18.707 124.828 18.2773C124.047 17.8086 123.188 17.5352 122.25 17.457C119.711 17.4961 117.816 18.0234 116.566 19.0391C115.355 20.0547 114.594 21.7148 114.281 24.0195ZM163.324 10.543C162.973 11.4023 162.66 12.1836 162.387 12.8867C162.152 13.5898 161.938 14.2148 161.742 14.7617C161.547 15.3867 161.371 15.9336 161.215 16.4023C161.059 16.9492 160.883 17.5742 160.688 18.2773C160.492 18.9023 160.238 19.6836 159.926 20.6211C159.652 21.5195 159.32 22.5938 158.93 23.8438C158.617 21.9688 158.051 20.4844 157.23 19.3906C156.41 18.2578 155.57 17.3789 154.711 16.7539C153.695 16.0508 152.602 15.543 151.43 15.2305C149.32 14.8789 147.797 14.918 146.859 15.3477C145.922 15.7773 145.297 16.3242 144.984 16.9883C144.828 17.2617 144.652 17.6133 144.457 18.043C144.301 18.4336 144.164 18.8438 144.047 19.2734C143.969 19.7031 143.949 20.1328 143.988 20.5625C144.027 20.9922 144.203 21.3438 144.516 21.6172C144.711 21.8125 145.219 22.0859 146.039 22.4375C146.859 22.75 147.836 23.1211 148.969 23.5508C150.141 23.9414 151.371 24.3711 152.66 24.8398C153.988 25.3086 155.238 25.7773 156.41 26.2461C157.582 26.7148 158.598 27.1836 159.457 27.6523C160.316 28.1211 160.883 28.5508 161.156 28.9414C161.391 29.332 161.645 29.8594 161.918 30.5234C162.23 31.1484 162.445 31.8516 162.562 32.6328C162.719 33.375 162.758 34.1562 162.68 34.9766C162.641 35.7578 162.426 36.5391 162.035 37.3203C161.645 38.1016 161.02 38.8242 160.16 39.4883C159.34 40.1523 158.227 40.6992 156.82 41.1289C155.18 41.6367 153.598 41.7734 152.074 41.5391C150.551 41.3047 149.145 40.9531 147.855 40.4844C146.605 40.0156 145.512 39.5664 144.574 39.1367C143.637 38.668 142.973 38.4727 142.582 38.5508C142.152 38.6289 141.664 38.8438 141.117 39.1953C140.57 39.5469 140.043 39.918 139.535 40.3086C139.066 40.6602 138.656 40.9922 138.305 41.3047C137.953 41.5781 137.777 41.6758 137.777 41.5977C137.777 41.5195 137.836 41.2852 137.953 40.8945C138.109 40.5039 138.266 40.0352 138.422 39.4883C138.617 38.9023 138.793 38.2773 138.949 37.6133C139.145 36.9102 139.281 36.2461 139.359 35.6211C139.438 35.1133 139.535 34.4883 139.652 33.7461C139.73 33.082 139.828 32.2812 139.945 31.3438C140.102 30.3672 140.277 29.1953 140.473 27.8281C140.668 28.8438 140.941 29.7227 141.293 30.4648C141.684 31.207 142.055 31.8516 142.406 32.3984C142.836 33.0234 143.246 33.5508 143.637 33.9805C144.223 34.5273 144.906 35.0352 145.688 35.5039C146.508 35.9727 147.328 36.3828 148.148 36.7344C148.969 37.0469 149.75 37.2422 150.492 37.3203C151.234 37.3984 151.859 37.3203 152.367 37.0859C152.875 36.8516 153.305 36.4219 153.656 35.7969C154.047 35.1719 154.32 34.4883 154.477 33.7461C154.633 33.0039 154.691 32.3008 154.652 31.6367C154.613 30.9336 154.438 30.3672 154.125 29.9375C153.891 29.6641 153.344 29.3125 152.484 28.8828C151.664 28.4531 150.668 27.9844 149.496 27.4766C148.363 26.9688 147.152 26.4414 145.863 25.8945C144.613 25.3477 143.422 24.8008 142.289 24.2539C141.195 23.668 140.277 23.1211 139.535 22.6133C138.832 22.0664 138.441 21.5781 138.363 21.1484C138.285 20.5234 138.227 19.8398 138.188 19.0977C138.148 18.3164 138.188 17.5547 138.305 16.8125C138.461 16.0312 138.734 15.2891 139.125 14.5859C139.555 13.8828 140.18 13.2969 141 12.8281C141.547 12.5156 142.27 12.2812 143.168 12.125C144.066 11.9688 145.062 11.8906 146.156 11.8906C147.25 11.8516 148.383 11.8906 149.555 12.0078C150.727 12.0859 151.84 12.2031 152.895 12.3594C153.988 12.4766 154.965 12.6328 155.824 12.8281C156.723 13.0234 157.406 13.1992 157.875 13.3555C158.422 13.5508 159.008 13.5703 159.633 13.4141C160.18 13.2969 160.766 13.043 161.391 12.6523C162.016 12.2617 162.66 11.5586 163.324 10.543ZM164.73 7.08594C165.902 7.20312 166.879 7.30078 167.66 7.37891C168.48 7.45703 169.145 7.51563 169.652 7.55469C170.238 7.59375 170.707 7.61328 171.059 7.61328C171.41 7.65234 171.879 7.65234 172.465 7.61328C172.973 7.57422 173.637 7.53516 174.457 7.49609C175.277 7.41797 176.312 7.30078 177.562 7.14453C177.289 7.53516 177.074 7.88672 176.918 8.19922C176.762 8.47266 176.625 8.72656 176.508 8.96094L176.156 9.66406C176.078 9.89844 176 10.1328 175.922 10.3672C175.844 10.5625 175.766 10.7969 175.688 11.0703C175.648 11.3438 175.609 11.6367 175.57 11.9492H184.594L183.773 16.6953L175.512 16.2266C175.316 18.2188 175.18 19.7617 175.102 20.8555C175.023 21.9492 174.945 22.75 174.867 23.2578L174.75 24.3125C174.633 25.7969 174.516 27.418 174.398 29.1758C174.281 30.8945 174.242 32.4961 174.281 33.9805C174.32 35.4648 174.457 36.7148 174.691 37.7305C174.926 38.707 175.336 39.1953 175.922 39.1953C176.508 39.1953 177.055 39.0391 177.562 38.7266C178.07 38.4141 178.5 38.043 178.852 37.6133C179.242 37.1836 179.535 36.7539 179.73 36.3242C179.926 35.8555 180.023 35.5039 180.023 35.2695C180.023 35.0352 179.965 34.7617 179.848 34.4492C179.652 33.8633 179.301 33.1211 178.793 32.2227C179.926 32.4961 180.922 32.7695 181.781 33.043C182.211 33.1992 182.602 33.3555 182.953 33.5117C183.344 33.668 183.793 33.8438 184.301 34.0391C184.73 34.2344 185.277 34.4688 185.941 34.7422C186.605 35.0156 187.387 35.3477 188.285 35.7383C187.426 35.8945 186.801 36.1484 186.41 36.5C186.176 36.6562 186 36.832 185.883 37.0273C185.609 37.457 185.297 38.043 184.945 38.7852C184.594 39.4883 184.066 40.1914 183.363 40.8945C182.66 41.5977 181.703 42.2227 180.492 42.7695C179.32 43.3164 177.738 43.6289 175.746 43.707C173.676 43.7852 172.094 43.4336 171 42.6523C169.945 41.8711 169.164 40.9727 168.656 39.957C168.188 38.9023 167.914 37.8672 167.836 36.8516C167.758 35.8359 167.699 35.1523 167.66 34.8008C167.621 34.4492 167.621 33.5703 167.66 32.1641C167.699 30.7578 167.758 29.2148 167.836 27.5352C167.914 25.8164 167.992 24.1758 168.07 22.6133C168.148 21.0117 168.188 19.8398 168.188 19.0977C168.188 18.707 168.207 18.2969 168.246 17.8672C168.246 17.5156 168.246 17.1445 168.246 16.7539C168.285 16.3242 168.305 15.9141 168.305 15.5234L159.809 15.4648L159.457 12.125L168.012 12.3594C167.934 11.9297 167.836 11.5391 167.719 11.1875C167.641 10.7969 167.562 10.4844 167.484 10.25C167.367 9.97656 167.25 9.74219 167.133 9.54688C166.977 9.35156 166.801 9.13672 166.605 8.90234C166.41 8.70703 166.156 8.45313 165.844 8.14062C165.531 7.82812 165.16 7.47656 164.73 7.08594ZM201.117 34.5664C202.211 34.5664 203.227 34.4492 204.164 34.2148C204.945 34.0195 205.688 33.707 206.391 33.2773C207.133 32.8086 207.621 32.125 207.855 31.2266C208.637 31.3828 209.301 31.5195 209.848 31.6367C210.395 31.7148 210.863 31.793 211.254 31.8711C211.684 31.9883 212.055 32.0664 212.367 32.1055C212.68 32.1836 213.051 32.2617 213.48 32.3398C213.871 32.418 214.34 32.5156 214.887 32.6328C215.473 32.7109 216.156 32.8281 216.938 32.9844C216.352 32.9062 215.746 32.9648 215.121 33.1602C214.535 33.3555 213.969 33.5703 213.422 33.8047C212.797 34.0781 212.211 34.4102 211.664 34.8008C211.312 35.0352 210.902 35.3867 210.434 35.8555C210.004 36.3242 209.379 36.7734 208.559 37.2031C207.738 37.6328 206.645 38.0039 205.277 38.3164C203.949 38.5898 202.23 38.6875 200.121 38.6094C197.582 38.5312 195.453 38.082 193.734 37.2617C192.016 36.4023 190.629 35.3672 189.574 34.1562C188.52 32.9062 187.758 31.5586 187.289 30.1133C186.82 28.668 186.566 27.3203 186.527 26.0703C186.488 24.8203 186.859 23.5117 187.641 22.1445C188.422 20.7773 189.516 19.5273 190.922 18.3945C192.367 17.2617 194.105 16.3438 196.137 15.6406C198.168 14.8984 200.395 14.5273 202.816 14.5273C204.223 14.5273 205.512 14.7031 206.684 15.0547C207.895 15.3672 208.988 15.7969 209.965 16.3438C210.98 16.8906 211.859 17.5156 212.602 18.2188C213.344 18.8828 213.969 19.5664 214.477 20.2695C214.984 21.0117 215.414 21.793 215.766 22.6133C216.078 23.3164 216.332 24.1172 216.527 25.0156C216.723 25.9141 216.781 26.832 216.703 27.7695C213.734 27.8477 211.332 27.9062 209.496 27.9453C207.699 27.9844 206.293 28.0039 205.277 28.0039H202.641H200.648C199.945 28.0039 199.027 28.0234 197.895 28.0625C196.762 28.1016 195.375 28.1602 193.734 28.2383C193.93 29.8008 194.418 31.0117 195.199 31.8711C196.02 32.6914 196.879 33.3164 197.777 33.7461C198.793 34.2148 199.906 34.4883 201.117 34.5664ZM195.844 24.0195C197.094 24.0977 198.129 24.1562 198.949 24.1953C199.809 24.2344 200.512 24.2734 201.059 24.3125C201.645 24.3516 202.113 24.3711 202.465 24.3711H203.93C204.906 24.3711 206.723 24.3125 209.379 24.1953C209.262 22.4766 208.891 21.168 208.266 20.2695C207.68 19.3711 207.055 18.707 206.391 18.2773C205.609 17.8086 204.75 17.5352 203.812 17.457C201.273 17.4961 199.379 18.0234 198.129 19.0391C196.918 20.0547 196.156 21.7148 195.844 24.0195ZM218.461 15.9336C219.203 15.9727 219.867 15.9922 220.453 15.9922C221.078 15.9531 221.605 15.9141 222.035 15.875C222.543 15.8359 222.992 15.7969 223.383 15.7578C223.969 15.6797 224.574 15.582 225.199 15.4648C225.746 15.3867 226.312 15.2891 226.898 15.1719C227.523 15.0156 228.129 14.8398 228.715 14.6445C228.48 15.2305 228.285 15.7383 228.129 16.168C227.973 16.5977 227.855 16.9688 227.777 17.2812C227.66 17.6328 227.602 17.9258 227.602 18.1602C227.562 18.4336 227.543 18.7656 227.543 19.1562C227.504 19.8203 227.504 20.8945 227.543 22.3789C229.574 20.6211 231.273 19.2539 232.641 18.2773C234.047 17.3008 235.16 16.5391 235.98 15.9922C236.957 15.3672 237.719 14.957 238.266 14.7617C239.711 14.5273 240.98 14.8594 242.074 15.7578C242.543 16.1484 242.992 16.6758 243.422 17.3398C243.852 17.9648 244.223 18.8047 244.535 19.8594C244.848 20.9141 245.082 22.1836 245.238 23.668C245.395 25.1133 245.414 26.8516 245.297 28.8828C244.477 28.9609 243.734 29.0391 243.07 29.1172C242.445 29.1953 241.918 29.2539 241.488 29.293C240.98 29.3711 240.512 29.4102 240.082 29.4102L238.5 29.5859C237.953 29.6641 237.27 29.7422 236.449 29.8203C235.668 29.8594 234.711 29.9375 233.578 30.0547C235.219 28.7266 236.273 27.5742 236.742 26.5977C237.25 25.582 237.465 24.7422 237.387 24.0781C237.309 23.3359 236.957 22.6914 236.332 22.1445C235.59 21.7148 234.789 21.5586 233.93 21.6758C233.188 21.7539 232.328 22.0859 231.352 22.6719C230.375 23.2578 229.34 24.3516 228.246 25.9531C228.324 28.4531 228.402 30.5234 228.48 32.1641C228.598 33.8047 228.695 35.1328 228.773 36.1484C228.891 37.3203 228.988 38.2383 229.066 38.9023C229.184 39.4883 229.418 40.1133 229.77 40.7773C230.043 41.3242 230.434 41.9297 230.941 42.5938C231.449 43.2578 232.113 43.9219 232.934 44.5859C231.215 44.5078 229.809 44.5078 228.715 44.5859C228.051 44.625 227.465 44.6641 226.957 44.7031C226.41 44.7812 225.824 44.8594 225.199 44.9375C224.652 45.0156 224.008 45.0938 223.266 45.1719C222.562 45.2891 221.781 45.4062 220.922 45.5234C221.234 45.0938 221.488 44.5859 221.684 44C221.879 43.4531 222.035 42.9258 222.152 42.418C222.309 41.832 222.426 41.2266 222.504 40.6016C222.543 40.0547 222.562 39.2344 222.562 38.1406C222.602 37.0469 222.582 35.8164 222.504 34.4492C222.465 33.043 222.406 31.5977 222.328 30.1133C222.25 28.5898 222.152 27.1641 222.035 25.8359C221.918 24.5078 221.781 23.3555 221.625 22.3789C221.508 21.3633 221.371 20.6602 221.215 20.2695C221.02 19.8008 220.785 19.332 220.512 18.8633C220.277 18.4336 219.984 17.9844 219.633 17.5156C219.281 17.0078 218.891 16.4805 218.461 15.9336Z" fill="black"/>
</g>
<defs>
<filter id="filter0_d_48_1356" x="0.828125" y="0.582031" width="248.645" height="52.9414" filterUnits="userSpaceOnUse" color-interpolation-filters="sRGB">
<feFlood flood-opacity="0" result="BackgroundImageFix"/>
<feColorMatrix in="SourceAlpha" type="matrix" values="0 0 0 0 0 0 0 0 0 0 0 0 0 0 0 0 0 0 127 0" result="hardAlpha"/>
<feOffset dy="4"/>
<feGaussianBlur stdDeviation="2"/>
<feComposite in2="hardAlpha" operator="out"/>
<feColorMatrix type="matrix" values="0 0 0 0 0 0 0 0 0 0 0 0 0 0 0 0 0 0 0.25 0"/>
<feBlend mode="normal" in2="BackgroundImageFix" result="effect1_dropShadow_48_1356"/>
<feBlend mode="normal" in="SourceGraphic" in2="effect1_dropShadow_48_1356" result="shape"/>
</filter>
</defs>
</svg>
